<?xml version="1.0" encoding="UTF-8"?>
<svg width="752pt" height="752pt" version="1.1" viewBox="0 0 752 752" xmlns="http://www.w3.org/2000/svg">
 <g>
  <path d="m381.92 304.96c-9.793 0-17.758-7.9688-17.758-17.758 0-9.793 7.9688-17.758 17.758-17.758 9.793 0 17.758 7.9688 17.758 17.758 0 9.7891-7.9688 17.758-17.758 17.758zm0-23.68c-3.2695 0-5.918 2.6523-5.918 5.918 0 3.2695 2.6523 5.918 5.918 5.918 3.2695 0 5.918-2.6523 5.918-5.918s-2.6523-5.918-5.918-5.918z"/>
  <path d="m381.92 550.63c-97.926 0-177.59-79.668-177.59-177.59 0-97.926 79.668-177.59 177.59-177.59s177.59 79.668 177.59 177.59c0 97.926-79.668 177.59-177.59 177.59zm0-343.34c-91.395 0-165.75 74.359-165.75 165.75s74.359 165.75 165.75 165.75 165.75-74.359 165.75-165.75c0-91.398-74.359-165.75-165.75-165.75z"/>
  <path d="m381.92 482.56c-13.059 0-23.68-10.621-23.68-23.68v-112.48c0-13.059 10.621-23.68 23.68-23.68s23.68 10.621 23.68 23.68v112.48c0 13.059-10.621 23.68-23.68 23.68zm0-148c-6.5312 0-11.84 5.3086-11.84 11.84v112.48c0 6.5312 5.3086 11.84 11.84 11.84s11.84-5.3086 11.84-11.84v-112.48c0-6.5273-5.3125-11.84-11.84-11.84z"/>
 </g>
</svg>
